#N canvas 13 84 793 609 10;
#X obj 69 371 makenote;
#X floatatom 70 401 5 0 0 0 - - -;
#X floatatom 116 408 5 0 0 0 - - -;
#X obj 75 445 noteout;
#X msg 161 413 0;
#X msg 91 314 127;
#X msg 36 313 64;
#X obj 38 269 bng 15 250 50 0 empty empty empty 17 7 0 10 -262144 -1
-1;
#X text 96 294 velocity;
#X text 12 292 note number;
#X text 163 391 midi channel;
#X obj 93 -84 dumpOSC 6011;
#X text 257 -29 info about minibees;
#X text 97 -14 routing data;
#X text 41 36 data from minibee 1;
#X text 380 34 data from minibee 2;
#X obj 56 -110 bng 15 250 50 0 empty empty empty 17 7 0 10 -262144
-1 -1;
#X obj 90 10 route 1 2;
#X floatatom 22 101 5 0 0 0 - - -;
#X floatatom 66 102 5 0 0 0 - - -;
#X floatatom 111 104 5 0 0 0 - - -;
#X obj 415 65 unpack f f f;
#X floatatom 395 100 5 0 0 0 - - -;
#X floatatom 439 101 5 0 0 0 - - -;
#X floatatom 484 103 5 0 0 0 - - -;
#X obj 92 -53 route /minibee/data /minibee/info /minibee/status;
#X text 450 -29 status of minibees;
#X obj 42 66 unpack f f f f f f f;
#X floatatom 157 101 5 0 0 0 - - -;
#X floatatom 201 102 5 0 0 0 - - -;
#X floatatom 246 104 5 0 0 0 - - -;
#X floatatom 290 104 5 0 0 0 - - -;
#X obj 478 -8 print MINIBEE_STATUS;
#X obj 285 -8 print MINIBEE_INFO;
#X obj 296 298 hsl 128 15 0 127 0 0 empty empty empty -2 -8 0 10 -262144
-1 -1 6346 1;
#X floatatom 296 325 5 0 0 0 - - -;
#X obj 299 353 ctlout 7;
#X text 105 227 http://en.flossmanuals.net/pure-data/ch067_using-midi/
;
#X obj 290 265 * 127;
#X text 337 264 multiply from range 0-1 to range 0-127 (midi values)
;
#X obj 36 239 >;
#X obj 69 186 hsl 128 15 0 1 0 0 empty empty threshold_value -2 -8
0 10 -262144 -1 -1 6800 1;
#X floatatom 59 212 5 0 0 0 - - -;
#X text 2 151 trigger note when above the threshold;
#X obj 98 255 gate;
#X connect 0 0 1 0;
#X connect 0 1 2 0;
#X connect 1 0 3 0;
#X connect 2 0 3 1;
#X connect 4 0 3 2;
#X connect 5 0 0 1;
#X connect 6 0 0 0;
#X connect 7 0 6 0;
#X connect 7 0 5 0;
#X connect 7 0 4 0;
#X connect 11 0 25 0;
#X connect 16 0 25 0;
#X connect 17 0 27 0;
#X connect 17 1 21 0;
#X connect 18 0 40 0;
#X connect 19 0 38 0;
#X connect 21 0 22 0;
#X connect 21 1 23 0;
#X connect 21 2 24 0;
#X connect 25 0 17 0;
#X connect 25 1 33 0;
#X connect 25 2 32 0;
#X connect 27 0 18 0;
#X connect 27 1 19 0;
#X connect 27 2 20 0;
#X connect 27 3 28 0;
#X connect 27 4 29 0;
#X connect 27 5 30 0;
#X connect 27 6 31 0;
#X connect 34 0 35 0;
#X connect 35 0 36 0;
#X connect 38 0 34 0;
#X connect 40 0 44 0;
#X connect 40 0 44 1;
#X connect 41 0 42 0;
#X connect 42 0 40 1;
#X connect 44 0 7 0;
